<!DOCTYPE svg PUBLIC "-//W3C//DTD SVG 1.1//EN" "http://www.w3.org/Graphics/SVG/1.1/DTD/svg11.dtd">
<svg fill="#DAA520" height="800px" width="800px" version="1.1" xmlns="http://www.w3.org/2000/svg" viewBox="0 0 512 512" xml:space="preserve">
<path d="M448,64H64C46.3,64,32,78.3,32,96v256c0,17.7,14.3,32,32,32h64v80c0,6.5,7.5,10.1,12.6,6.1L256,384h192 c17.7,0,32-14.3,32-32V96C480,78.3,465.7,64,448,64z M160,256c-17.7,0-32-14.3-32-32s14.3-32,32-32s32,14.3,32,32S177.7,256,160,256z M256,256c-17.7,0-32-14.3-32-32s14.3-32,32-32s32,14.3,32,32S273.7,256,256,256z M352,256c-17.7,0-32-14.3-32-32 s14.3-32,32-32s32,14.3,32,32S369.7,256,352,256z"/>
</svg>
