<svg xmlns="http://www.w3.org/2000/svg" viewBox="0 0 24 24" fill="#DAA520">
	<path d="M12 2C6.48 2 2 6.48 2 12s4.48 10 10 10 10-4.48 10-10S17.52 2 12 2zm7.93 9h-3.05c-.11-2.06-.63-3.96-1.44-5.5A8.03 8.03 0 0 1 19.93 11zM12 4c.83 1.09 1.94 3.04 2.24 7H9.76c.3-3.96 1.41-5.91 2.24-7zM4.07 13h3.05c.11 2.06.63 3.96 1.44 5.5A8.03 8.03 0 0 1 4.07 13zm3.05-2H4.07a8.03 8.03 0 0 1 4.49-5.5C7.75 7.04 7.23 8.94 7.12 11zM12 20c-.83-1.09-1.94-3.04-2.24-7h4.48c-.3 3.96-1.41 5.91-2.24 7zm2.51-1.5c.81-1.54 1.33-3.44 1.44-5.5h3.05a8.03 8.03 0 0 1-4.49 5.5z"/>
</svg>
